<svg width="56" height="57" viewBox="0 0 56 57" fill="none" xmlns="http://www.w3.org/2000/svg">
<rect x="0.0349121" y="0.442474" width="55.7743" height="55.7743" rx="25" fill="white"/>
<g clip-path="url(#clip0)">
<path d="M46.4805 16.9448L35.0219 28.3297L46.4805 39.7146C46.6877 39.2816 46.8133 38.803 46.8133 38.2919V18.3675C46.8133 17.8563 46.6877 17.3778 46.4805 16.9448Z" fill="#02A4B8"/>
<path d="M43.4926 15.0468H12.3515C11.8403 15.0468 11.3618 15.1725 10.9288 15.3796L25.5742 29.9512C26.8692 31.2462 28.975 31.2462 30.2699 29.9512L44.9153 15.3796C44.4823 15.1725 44.0038 15.0468 43.4926 15.0468Z" fill="#02A4B8"/>
<path d="M9.36357 16.9448C9.15643 17.3778 9.03076 17.8563 9.03076 18.3675V38.2919C9.03076 38.8031 9.15643 39.2817 9.36357 39.7146L20.8222 28.3297L9.36357 16.9448Z" fill="#02A4B8"/>
<path d="M33.4566 29.895L31.8351 31.5165C29.6775 33.6741 26.1666 33.6741 24.0089 31.5165L22.3875 29.895L10.9288 41.2799C11.3618 41.487 11.8403 41.6127 12.3515 41.6127H43.4926C44.0038 41.6127 44.4823 41.487 44.9153 41.2799L33.4566 29.895Z" fill="#02A4B8"/>
</g>
<defs>
<clipPath id="clip0">
<rect width="37.7826" height="37.7826" fill="white" transform="translate(9.03076 9.43845)"/>
</clipPath>
</defs>
</svg>
