<svg width="56" height="57" viewBox="0 0 56 57" fill="none" xmlns="http://www.w3.org/2000/svg">
<rect x="0.076416" y="0.442474" width="55.7743" height="55.7743" rx="25" fill="white"/>
<g clip-path="url(#clip0)">
<path d="M40.658 34.2938C38.6752 34.2938 36.7284 33.9837 34.8836 33.3741C33.9796 33.0657 32.8683 33.3486 32.3165 33.9152L28.6751 36.6641C24.4522 34.4099 21.8509 31.8095 19.6275 27.6182L22.2955 24.0717C22.9886 23.3795 23.2372 22.3683 22.9394 21.4195C22.3271 19.5649 22.0161 17.6191 22.0161 15.6355C22.0161 14.2025 20.8504 13.0367 19.4175 13.0367H13.4701C12.0372 13.0367 10.8715 14.2025 10.8715 15.6354C10.8715 32.0598 24.2335 45.4218 40.658 45.4218C42.0908 45.4218 43.2566 44.256 43.2566 42.8232V36.8924C43.2565 35.4596 42.0907 34.2938 40.658 34.2938Z" fill="#00A3B1"/>
</g>
<defs>
<clipPath id="clip0">
<rect width="32.3851" height="32.3851" fill="white" transform="translate(10.8715 13.0367)"/>
</clipPath>
</defs>
</svg>
