<svg width="19" height="25" viewBox="0 0 19 25" fill="none" xmlns="http://www.w3.org/2000/svg">
<path d="M6.27841 2.85812C6.22599 2.73991 6.14772 2.63365 6.0488 2.54642C5.94988 2.45918 5.83256 2.39295 5.70465 2.35213C5.57674 2.31132 5.44116 2.29685 5.30691 2.30968C5.17267 2.32252 5.04283 2.36236 4.92602 2.42658L3.14926 3.40303C2.31911 3.85984 1.82924 4.68089 1.89693 5.52799C2.18038 9.03507 3.2906 12.4365 5.14524 15.4799C6.98997 18.5288 9.5329 21.1437 12.5854 23.1306C13.3232 23.6099 14.3159 23.6171 15.1471 23.1619L16.9235 22.1867C17.0403 22.1227 17.1416 22.0357 17.2204 21.9315C17.2992 21.8274 17.3538 21.7085 17.3806 21.5828C17.4074 21.4571 17.4057 21.3274 17.3757 21.2023C17.3457 21.0772 17.2881 20.9596 17.2066 20.8574L14.7321 17.7498C14.645 17.6407 14.533 17.5519 14.4045 17.4899C14.2761 17.428 14.1345 17.3947 13.9905 17.3924L10.8246 17.3411C10.402 17.3343 9.98846 17.2236 9.62422 17.0197C9.25998 16.8159 8.95746 16.5258 8.74613 16.1778L6.31043 12.1646C6.09883 11.8166 5.98562 11.4225 5.98182 11.0205C5.97802 10.6186 6.08376 10.2226 6.28874 9.87107L7.82633 7.23886C7.89624 7.11913 7.93664 6.98588 7.94448 6.84914C7.95232 6.71241 7.9274 6.57577 7.8716 6.44953L6.27841 2.85812ZM4.17679 1.19457C4.47745 1.02946 4.81161 0.927055 5.15709 0.894157C5.50256 0.861259 5.85145 0.89862 6.18057 1.00376C6.50969 1.1089 6.81153 1.27941 7.06603 1.50397C7.32053 1.72853 7.52188 2.002 7.6567 2.30623L9.25026 5.89634C9.54246 6.55487 9.49959 7.30477 9.13466 7.92981L7.59842 10.5624C7.51892 10.6987 7.47785 10.8523 7.47921 11.0083C7.48056 11.1642 7.52429 11.3171 7.60615 11.4522L10.0432 15.4657C10.1254 15.6009 10.243 15.7136 10.3846 15.7927C10.5262 15.8719 10.6869 15.9148 10.8512 15.9173L14.0157 15.9683C14.3867 15.9742 14.7514 16.0602 15.0823 16.2199C15.4132 16.3795 15.7015 16.6086 15.9256 16.8898L18.3988 19.9971C19.2879 21.1142 18.9461 22.7186 17.6717 23.4171L15.8953 24.3923C14.624 25.0902 13.0074 25.1271 11.7423 24.3035C8.50395 22.1965 5.8061 19.4232 3.84889 16.1894C1.88218 12.9612 0.70502 9.35356 0.404719 5.63386C0.288178 4.18194 1.13043 2.86798 2.40174 2.17008L4.17815 1.19491L4.17679 1.19457Z" fill="white"/>
</svg>
